<svg xmlns="http://www.w3.org/2000/svg" width="1546.6" height="406" overflow="scroll">
  <style>
    .st0{opacity:.77}.st1{fill:#fff}
  </style>
  <g class="st0">
    <path class="st1" d="M147.3 55.9v91.4H55.9C25 147.3 0 172.3 0 203.2 0 234 25 259 55.9 259h91.4C209 259 259 209 259 147.3V55.9C259 25 234 0 203.2 0c-30.9 0-55.9 25-55.9 55.9z"/>
  </g>
  <g class="st0">
    <path class="st1" d="M258.7 350.1v-91.4h91.4c30.9 0 55.9-25 55.9-55.9s-25-55.9-55.9-55.9h-91.4C197 147 147 197 147 258.7v91.4c0 30.9 25 55.9 55.9 55.9 30.8 0 55.8-25 55.8-55.9z"/>
  </g>
  <g>
    <path class="st1" d="M458.6 296.5c-1.8-1.8-2.2-4.8-.4-6.6 1.8-1.8 4.8-2.2 6.6-.4.4.4 39.1 35 89.6 35 49.8 0 88.5-28 88.5-63.8 0-40.9-39.4-50.1-81.1-59.7-42.8-10-87-20.3-87-67.5 0-33.6 35.8-61.2 80-61.2 50.9 0 77.4 29.9 78.5 31.3 1.8 1.8 1.5 4.8-.4 6.6-2.2 1.5-5.2 1.5-6.6-.4-.4-.4-25.1-28-71.5-28-38.7 0-70.4 23.2-70.4 51.6 0 39.4 38.7 48.7 79.6 58.3 43.5 10 88.1 20.3 88.1 68.9 0 40.9-42.8 73-97.7 73-54.2.1-94.3-35.7-95.8-37.1zM865.2 156v171.1c0 2.9-1.8 4.8-4.4 4.8-2.9 0-4.8-1.8-4.8-4.8v-45c-14 29.5-42.8 49.8-75.9 49.8-47.2 0-85.2-40.9-85.2-90.3s38-90.3 85.2-90.3c33.2 0 61.9 20.6 75.9 49.8v-45c0-2.2 1.8-4.8 4.8-4.8 2.6-.1 4.4 2.5 4.4 4.7zm-9.2 85.5c0-44.6-34.3-80.7-75.9-80.7-41.7 0-75.9 36.1-75.9 80.7 0 45 34.3 81.1 75.9 81.1 41.6 0 75.9-36.1 75.9-81.1zM1093.5 156v171.1c0 2.9-1.8 4.8-4.4 4.8-2.9 0-4.8-1.8-4.8-4.8v-45c-14 29.5-42.8 49.8-75.9 49.8-47.2 0-85.2-40.9-85.2-90.3s38-90.3 85.2-90.3c33.2 0 61.9 20.6 75.9 49.8v-45c0-2.2 1.8-4.8 4.8-4.8 2.5-.1 4.4 2.5 4.4 4.7zm-9.3 85.5c0-44.6-34.3-80.7-75.9-80.7-41.7 0-75.9 36.1-75.9 80.7 0 45 34.3 81.1 75.9 81.1 41.6 0 75.9-36.1 75.9-81.1zM1231.3 156c0 2.6-2.2 4.4-4.8 4.4H1197v143.8c0 10.3 8.5 18.8 18.8 18.8 2.6 0 4.8 1.8 4.8 4.4 0 2.6-2.2 4.8-4.8 4.8-15.5 0-28-12.5-28-28V160.4h-31c-2.6 0-4.8-1.8-4.8-4.4 0-2.6 2.2-4.8 4.8-4.8h31V78.9c0-2.6 1.8-4.8 4.4-4.8 2.6 0 4.8 2.2 4.8 4.8v72.3h29.5c2.6 0 4.8 2.2 4.8 4.8zM1448.1 224.6c0-35.4-28.4-63.8-63.8-63.8-34.7 0-62.7 27.3-64.1 61.2v105.1c0 1.8-.7 3.3-1.8 4.1-.7.4-1.5.7-1.8.7h-.7c-1.1 0-2.2-.4-3.3-1.1-.7-.7-1.5-1.8-1.5-2.9V78.6c0-2.6 2.2-4.8 4.8-4.8 2.6 0 4.4 2.2 4.4 4.8v110.6c12.5-22.5 36.5-38 64.1-38 40.6 0 73 32.8 73 73.4v102.5c0 2.6-2.2 4.8-4.4 4.8-3 0-4.8-2.2-4.8-4.8V224.6zM1537.4 97.7c0-3 1.8-4.8 4.8-4.8 2.2 0 4.4 1.8 4.4 4.8v8.8c0 2.2-2.2 4.4-4.4 4.4-3 0-4.8-2.2-4.8-4.4v-8.8zm0 57.9c0-2.9 1.8-4.4 4.8-4.4 2.2 0 4.4 1.5 4.4 4.4V327c0 2.6-2.2 4.8-4.4 4.8-3 0-4.8-2.2-4.8-4.8V155.6z"/>
  </g>
</svg>