<svg id="c19bc3b6-f1dd-4e75-b7c7-72a3964ee2cf" data-name="Layer 1" xmlns="http://www.w3.org/2000/svg" xmlns:xlink="http://www.w3.org/1999/xlink" viewBox="0 0 406 406"><defs><style>.c216afa5-1011-4779-9da0-119864848355{opacity:0.77;}.f2f3cec7-6105-46b5-803b-2114f4bd9980{fill:url(#6c481f30-a9b7-4a46-99cf-487a91b5d797);}.bfbd3da4-5ac2-4936-bf5c-8f89ccd852eb{fill:url(#3ad4e034-9433-4de0-845c-7300c48ba1dd);}</style><linearGradient id="6c481f30-a9b7-4a46-99cf-487a91b5d797" x1="15.01" y1="271.79" x2="286.86" y2="44.78" gradientUnits="userSpaceOnUse"><stop offset="0" stop-color="#ff8103"/><stop offset="1" stop-color="#ff0049"/></linearGradient><linearGradient id="3ad4e034-9433-4de0-845c-7300c48ba1dd" x1="47.51" y1="111.75" x2="352.5" y2="331.18" gradientUnits="userSpaceOnUse"><stop offset="0" stop-color="#009eff"/><stop offset="1" stop-color="#036aff"/></linearGradient></defs><title>logo</title><g class="c216afa5-1011-4779-9da0-119864848355"><path class="f2f3cec7-6105-46b5-803b-2114f4bd9980" d="M147.31,55.86v91.45H55.86A55.86,55.86,0,0,0,0,203.18H0A55.86,55.86,0,0,0,55.86,259h91.45A111.73,111.73,0,0,0,259,147.31h0V55.86A55.86,55.86,0,0,0,203.18,0h0A55.86,55.86,0,0,0,147.31,55.86Z"/></g><g class="c216afa5-1011-4779-9da0-119864848355"><path class="bfbd3da4-5ac2-4936-bf5c-8f89ccd852eb" d="M258.69,350.14V258.69h91.45A55.86,55.86,0,0,0,406,202.82h0A55.86,55.86,0,0,0,350.14,147H258.69A111.73,111.73,0,0,0,147,258.69h0v91.45A55.86,55.86,0,0,0,202.82,406h0A55.86,55.86,0,0,0,258.69,350.14Z"/></g></svg>